 <svg version="1.0" xmlns="http://www.w3.org/2000/svg"  width="247.000000pt" height="218.000000pt" viewBox="0 0 247.000000 218.000000"  preserveAspectRatio="xMidYMid meet">  <g transform="translate(0.000000,218.000000) scale(0.100000,-0.100000)" fill="#000000" stroke="none"> <path d="M1132 2045 c-152 -42 -267 -150 -320 -299 -48 -133 -30 -311 43 -427 14 -21 27 -39 29 -39 2 0 -7 28 -19 63 -30 84 -38 159 -25 243 29 191 181 361 365 409 125 32 294 10 375 -50 18 -14 35 -25 37 -25 26 0 -115 91 -175 113 -74 27 -234 33 -310 12z m128 -14 c0 -4 -17 -11 -37 -14 -81 -13 -109 -23 -162 -60 -54 -37 -141 -121 -141 -136 0 -6 -4 -11 -10 -11 -13 0 -71 -116 -77 -155 -3 -16 -10 -33 -15 -36 -6 -4 -8 -11 -5 -16 4 -5 2 -23 -3 -39 -8 -21 -9 -10 -5 46 4 49 14 93 30 128 14 30 25 59 25 64 0 17 79 116 112 139 18 13 35 27 36 31 2 4 9 8 15 8 6 0 30 9 53 20 63 31 184 51 184 31z"></path> <path d="M1260 1829 c-55 -10 -158 -53 -195 -83 -15 -12 -8 -11 29 4 270 112 597 -51 671 -335 30 -115 15 -264 -36 -355 l-19 -35 21 25 c88 104 124 307 79 451 -52 170 -205 301 -380 329 -74 11 -94 11 -170 -1z m184 -23 c27 -4 56 -11 65 -16 9 -4 30 -14 46 -21 93 -41 190 -144 226 -240 22 -58 35 -174 19 -164 -6 3 -10 15 -10 25 0 11 -5 32 -11 47 -31 78 -55 129 -67 141 -7 8 -24 29 -38 48 -53 69 -198 154 -289 169 -63 10 -74 16 -50 25 11 4 29 4 40 0 11 -4 42 -11 69 -14z"></path> <path d="M640 1773 c-69 -108 -97 -261 -71 -383 30 -140 124 -261 253 -324 140 -69 301 -69 442 0 70 34 97 62 33 34 -24 -11 -78 -25 -118 -31 -242 -38 -492 128 -554 366 -29 115 -14 267 36 353 28 49 12 38 -21 -15z m-53 -255 c-3 -7 -5 -2 -5 12 0 14 2 19 5 13 2 -7 2 -19 0 -25z m20 -88 c46 -181 212 -341 387 -371 76 -13 110 -29 61 -29 -67 0 -164 23 -224 53 -92 46 -181 138 -216 224 -14 36 -24 72 -21 79 3 7 1 16 -4 19 -6 4 -10 25 -10 48 0 49 12 39 27 -23z"></path> <path d="M1470 1606 c0 -2 8 -10 18 -17 15 -13 16 -12 3 4 -13 16 -21 21 -21 13z"></path> <path d="M1201 1582 c-1 -30 -30 -41 -47 -17 -13 18 -14 18 -14 -3 0 -36 -28 -38 -63 -6 l-31 29 27 -34 c32 -38 31 -53 -4 -61 -16 -4 -20 -8 -11 -14 19 -12 14 -36 -10 -45 -18 -6 -19 -9 -5 -14 22 -8 22 -36 0 -44 -15 -6 -14 -8 6 -13 35 -8 37 -26 4 -56 l-28 -27 32 18 c26 15 34 16 47 6 14 -12 14 -16 0 -45 l-16 -31 25 29 c26 32 57 31 57 -1 1 -17 1 -17 11 0 14 24 38 21 49 -5 l9 -23 0 23 c1 36 31 40 58 6 l25 -29 -16 31 c-14 29 -14 33 0 45 13 10 21 9 47 -5 l32 -18 -29 24 c-34 28 -30 58 6 58 20 1 21 2 6 11 -10 5 -18 16 -18 24 0 8 8 19 18 24 16 10 16 10 -1 11 -23 0 -33 26 -17 45 10 12 9 15 -8 15 -32 0 -36 19 -12 53 l23 32 -26 -24 c-36 -32 -62 -22 -53 22 l5 32 -15 -28 c-18 -34 -45 -32 -55 3 -7 24 -7 24 -8 2z m87 -74 c18 -15 32 -36 32 -47 0 -11 4 -22 9 -25 27 -17 -22 -136 -57 -136 -10 0 -22 -3 -26 -7 -10 -10 -76 -11 -82 -1 -3 4 -12 8 -20 8 -15 0 -44 23 -44 35 0 4 -7 14 -16 23 -11 10 -13 17 -6 20 8 2 8 9 0 22 -15 24 5 72 46 110 41 39 117 38 164 -2z"></path> <path d="M1520 1524 c113 -263 -53 -595 -335 -669 -125 -32 -285 -11 -380 50 l-40 26 30 -25 c43 -37 139 -86 199 -102 28 -8 88 -14 132 -14 245 0 437 166 475 411 15 96 0 192 -46 287 -38 79 -65 107 -35 36z m65 -311 c-4 -21 -9 -45 -12 -53 -3 -8 -8 -23 -9 -33 -7 -32 -56 -121 -93 -166 -29 -36 -101 -93 -121 -96 -3 -1 -20 -9 -37 -18 -18 -10 -33 -15 -33 -13 0 3 -16 -2 -35 -10 -36 -15 -116 -20 -99 -6 5 5 38 17 74 28 35 10 87 34 115 53 57 39 151 134 160 162 4 10 10 19 14 19 5 0 14 15 21 33 7 17 16 41 20 52 5 11 12 35 15 53 9 45 27 41 20 -5z"></path> <path d="M890 1266 c0 -2 8 -10 18 -17 15 -13 16 -12 3 4 -13 16 -21 21 -21 13z"></path> <path d="M735 656 c-29 -10 -30 -13 -18 -36 15 -30 18 -335 3 -374 -9 -25 -8 -26 26 -26 31 0 34 2 24 19 -12 24 -13 98 -1 105 15 9 113 -104 102 -118 -7 -8 4 -10 42 -7 33 2 46 6 36 11 -8 5 -43 40 -77 78 l-61 69 57 47 c31 25 66 46 76 46 11 0 17 2 14 5 -8 9 -88 -6 -83 -15 8 -13 -97 -102 -107 -92 -5 5 -8 75 -6 156 2 80 3 145 3 145 0 -1 -14 -6 -30 -13z"></path> <path d="M518 628 c17 -17 17 -379 0 -396 -9 -9 -1 -12 36 -12 47 0 47 0 32 22 -22 31 -23 329 -2 371 l15 27 -47 0 c-36 0 -43 -3 -34 -12z"></path> <path d="M1063 614 c-3 -8 -1 -20 5 -26 16 -16 42 -2 42 22 0 24 -38 28 -47 4z"></path> <path d="M1853 614 c-3 -8 -1 -20 5 -26 16 -16 42 -2 42 22 0 24 -38 28 -47 4z"></path> <path d="M1064 483 l-32 -4 24 -24 c21 -21 24 -33 24 -97 0 -40 -4 -88 -9 -106 -10 -32 -9 -32 25 -32 31 0 34 2 24 19 -5 11 -10 72 -10 135 0 64 -3 115 -7 114 -5 0 -22 -3 -39 -5z"></path> <path d="M1265 478 c-49 -26 -60 -86 -24 -132 l20 -26 -20 -26 c-26 -33 -26 -52 -1 -79 l21 -22 -26 -17 c-35 -23 -34 -69 2 -93 35 -23 127 -23 171 0 63 34 82 129 27 143 -13 3 -57 9 -96 12 -84 8 -106 26 -75 61 14 15 31 21 63 21 36 0 50 6 75 30 24 25 29 37 26 68 -3 33 0 37 22 41 18 3 8 7 -35 17 -74 16 -124 17 -150 2z m115 -47 c18 -45 -15 -101 -60 -101 -22 0 -60 49 -60 78 0 71 93 88 120 23z m64 -237 c5 -14 4 -15 -9 -4 -17 14 -19 20 -6 20 5 0 12 -7 15 -16z m-31 -9 c23 -10 22 -57 -2 -79 -46 -41 -151 -25 -167 26 -5 17 0 28 21 46 24 21 36 23 79 19 28 -3 59 -8 69 -12z"></path> <path d="M1632 483 c38 -6 50 -25 46 -75 -3 -41 -5 -43 -53 -61 -82 -30 -113 -79 -76 -116 26 -26 71 -27 103 -1 25 19 26 19 43 0 18 -20 46 -26 58 -13 4 3 -2 12 -13 20 -18 13 -20 26 -20 114 0 127 -6 139 -68 138 -28 -1 -36 -4 -20 -6z m68 -129 c0 -8 -5 -12 -10 -9 -6 4 -8 11 -5 16 9 14 15 11 15 -7z m-22 -51 c-6 -67 -93 -88 -93 -22 0 17 10 29 35 41 53 26 62 23 58 -19z m-98 -65 c0 -5 -7 -3 -15 6 -8 8 -15 18 -15 22 0 3 7 1 15 -6 8 -7 15 -17 15 -22z"></path> <path d="M1851 483 c-33 -4 -33 -5 -12 -19 19 -14 21 -25 21 -118 0 -66 -4 -106 -12 -114 -9 -9 -2 -12 32 -12 34 0 41 3 32 12 -8 8 -12 53 -12 135 0 68 -3 122 -7 121 -5 0 -23 -3 -42 -5z"></path> <path d="M1566 459 c-27 -22 -35 -49 -13 -49 7 0 20 16 29 35 8 19 14 35 13 35 -1 0 -14 -9 -29 -21z"></path> </g> </svg> 